<?xml version="1.0" encoding="UTF-8"?>
<svg id="Layer_1" data-name="Layer 1" xmlns="http://www.w3.org/2000/svg" viewBox="0 0 982 982">
  <defs>
    <style>
      .cls-1 {
        fill: #44497e;
        stroke-width: 0px;
      }
    </style>
  </defs>
  <path class="cls-1" d="M568.49,613.28c9.42,2.76,13.98-3.24,17.42-11.29,3.66-8.57,7.39-17.11,11.48-25.47,1.02-2.09,3.29-3.9,5.42-5.02,2.6-1.37,5.62-2.05,8.53-2.71,15.98-3.61,29.52-12.51,43.87-19.76,29.62-14.98,61.51-21.1,94.44-22.55,1.83-.08,3.65-.16,5.66.35-5.56,1.69-11.1,3.43-16.68,5.08-28.29,8.35-55.87,18.48-81.5,33.3-24.3,14.05-42.49,32.95-48.64,61.43-4.78,22.14-.42,42.26,14.16,61.85.31-4.09,1.18-7.07.64-9.77-2.34-11.74-5.32-23.35-7.54-35.11-.8-4.24-.13-8.75-.13-12.09,8.58,17.69,17.53,36.15,26.47,54.61.58,1.2,1,2.47,1.59,3.66,4.07,8.17,2.71,15.07-3.83,21.65-8.93,8.98-15.72,19.4-17.62,32.32-.36,2.42-.44,4.88-1.27,7.46-1.69-8.03-3.38-16.06-5.21-24.71-13.47,11.53-29.02,17.46-45.4,21.75-1.23.32-2.6,3.12-2.59,4.76.06,18.53-.39,37.06-4.97,55.09-2.84,11.18-7,22.02-10.75,33.56,46.57-26.54,93.14-52.94,122.52-100.66-1.88,13.65-6.2,26.52-12.89,38.32-20.18,35.6-47.17,64.76-83.26,84.74-22.6,12.51-46.73,20.11-72.79,20.29-20.9.14-40.41-5.74-59-14.83-32.88-16.08-60.52-39.11-85.64-65.35-47.19-49.27-84.63-105.15-112.36-167.46-11.21-25.18-19.92-51.14-21.87-78.98-1.43-20.4,4.39-38.23,18.21-53.17,12.88-13.93,26.27-27.39,39.37-41.12,4.01-4.2,7.82-8.6,12.6-12.46-1.9,3.8-3.69,7.66-5.74,11.37-2.25,4.07-4.62,8.08-7.17,11.97-2.47,3.76-5.24,7.31-7.86,10.97-2.59,3.63-5.16,7.28-8.19,11.56,9.83,3.75,19.05,7.44,28.4,10.79,27.95,10.02,56.39,18.1,86.23,19.93,18.86,1.16,37.35-.21,53.89-10.77,13.94-8.9,20.82-22.41,22.49-38.26,1.09-10.34.19-20.9.03-31.36-.06-3.73-1.43-5.78-5.82-7.02-7.54-2.13-14.77-5.64-21.82-9.19-3.37-1.69-4.95-.33-6.67,1.83-6.35,7.93-8.85,17.46-10.75,27.11-1.18,6.01-1.51,12.19-2.54,18.26-5.51-29.4,1.24-57.29,10.46-86.05,6.38,23.25,23.34,34.37,42.59,42.89,10.42,4.61,21.48,7.12,33.04,6.16,12.04-.99,21.82-5.43,26.92-17.34,4.84-11.3,9.86-22.52,14.98-33.7.64-1.41,2.15-2.66,3.57-3.43,2.76-1.5,5.9-2.32,8.6-3.92,7.79-4.6,9.46-9.5,6.55-17.88-4.22-12.13-4.31-23.84,1.67-35.74,7.31-14.54,14.45-29.29,16.8-45.69.87-6.08,1.31-12.23,1.91-17.92,3.28,5.93,4.74,23.96,1.45,32.73-3.78,10.07-8.16,19.99-13.2,29.49-5.6,10.57-6.48,21.13-2.82,32.29.4,1.22.96,2.39,1.65,4.06,9.72-7.46,20.54-11.53,32.16-13.39,20.97-3.35,40.62-.72,56.84,14.41,10.44,9.74,15.51,22.4,17.17,36.27.84,7,.15,14.19.15,21.37,10.22-2.07,12.89.42,11.44,10.64-1.24,8.73-4.25,16.74-10.34,23.37-.75.82-1.23,1.89-2.19,3.4,5.69,1.35,10.97,2.51,16.19,3.87,40.93,10.64,79.34,26.89,113.51,52.14,11.42,8.44,21.61,18.24,27.94,31.41,5.7,11.86,4.26,23.94-4.38,33.93-10.62,12.28-24.91,18.68-39.6,24.19-25.99,9.75-53.13,14.87-80.46,19.06-8.18,1.25-16.39,2.35-25.18,3.6,2.65,10.4,5.29,20.32,7.67,30.31,1.61,6.79,3.15,13.62,4.19,20.51,2.24,14.83-2.46,27.63-12.36,38.61-11.78,13.08-26.01,23.21-41.12,32.73,4.97-8.09,9.91-16.19,14.9-24.26,4.64-7.5,9.16-15.07,14.01-22.44,11.74-17.85,12.65-37.04,7.57-57.09-2.7-10.64-5.31-21.3-8.13-32.61,5.84-2.02,11.77-4,17.65-6.13,28.46-10.28,56.94-20.5,85.32-30.98,5.73-2.12,11.34-4.85,16.58-8.01,16.14-9.71,17.51-23.26,3.99-36.4-9.96-9.68-21.85-16.51-34.6-21.42-13.46-5.19-27.46-9-41.24-13.37-.91-.29-1.94-.23-4.12-.45,7.28,9.59,5.47,18.2-1.43,27.21-.54-17.09-11.49-27.26-21.78-37.88-5.71-5.89-12.33-9.93-20.27-12.08-3.07-.83-5.12-.49-7.61,1.59-11.16,9.29-24.1,14.4-37.14,15.72,6.4-4.3,14.49-8.35,20.86-14.26,16.82-15.61,17.65-34.73,2.85-52.28-2.83-3.36-3.93-6.43-3.48-10.65.37-3.45.05-6.99-.19-10.48-1-14.22-7.95-24.14-21.04-30.16-11.81-5.44-23.74-9.74-36.99-8.35-2.94.31-5.86,1.13-8.71,1.97-3.53,1.03-5.74,2.59-5.62,7.27.07,2.64-2.84,5.77-5.11,7.95-1.95,1.87-4.79,3.41-7.44,3.83-6.12.98-8.4,5.12-10.15,10.21-5.16,14.93-7.28,30-2.84,45.56.75,2.62,1.32,5.79.54,8.25-4.39,13.98.03,25.48,9.22,35.85,2.09,2.36,4.18,4.74,6.47,7.34-3.77-1.96-7.4-4.08-11.24-5.71-1.68-.71-3.83-.73-5.69-.47-1.38.19-2.8,1.12-3.91,2.06-17.17,14.57-33.76,29.71-45.5,49.28-5.39,8.99-9.06,18.53-8.37,29.27.9,13.9,8.79,23.73,19.01,32.09,3.33,2.73,6.97,5.08,10.15,8.21-5.45-3.01-10.9-6.03-16.41-9.07-6.94,29.49-10.26,58.36,10.09,84.68-.44.17-.89.33-1.33.5-7.72-5.85-15.43-11.7-23.65-17.93-7.9,7.33-14.09,16.88-17.54,27.98-6.32,20.33-6.43,40.65,1.88,60.57,5.25,12.58,10.44,25.2,16.15,37.58,4.1,8.9,9.76,16.63,21.13,18.86.5-2.89,1.24-5.88,1.51-8.9.82-9.14.86-18.06-2.24-27.08-4.96-14.44-10.05-28.93-10.32-44.54-.28-16.07,6.68-28.13,19.67-37.07,14.34-9.86,30.64-14.86,47.44-18.75-6.72,4.01-13.77,7.57-20.09,12.15-8.04,5.84-15.99,11.98-23.07,18.92-11.43,11.2-13.4,25.54-9.72,40.35,5.48,22.01,6.92,44.36,7.37,66.86.04,1.9-.48,4.66-1.77,5.58-7.66,5.5-15.63,10.58-23.99,16.13-2.62-5.78-5.22-11.11-7.45-16.58-1.8-4.41-4.33-7.83-8.27-10.8-24.34-18.38-42.41-42.04-56.68-68.77-14.87-27.87-25.17-57.59-35.38-87.34-3.13-9.13-6.15-18.3-9.44-27.37-.62-1.71-1.99-3.6-3.53-4.44-24.02-13.07-49.4-21.54-77.07-21.19-6.74.08-13.46,1.49-21.49,2.45,2.47,10.97,4.19,21.11,7.05,30.92,11.24,38.5,30.61,72.91,54.3,104.97,25.7,34.77,55.7,65.29,91.17,90.21,25.4,17.84,52.68,31.72,82.98,39.24,11.15,2.77,24.17-2.3,29.23-12.57,5.05-10.26,9.2-20.96,13.55-31.55.63-1.54.7-3.64.24-5.26-3.15-10.96-3.77-21.93-.81-33.02,3.82-14.3,3.61-28.69.63-43.05-.57-2.73.19-4.26,2.02-5.96,8.41-7.82,17-15.46,22.44-25.9,6.74-12.94,8.12-26.85,6.11-40.85-2.65-18.4-6.51-36.62-9.94-55.41ZM525.97,427.58c4.11,1.29,7.76,2.43,11.72,3.67-.76-6.5-1.43-12.28-2.23-19.13-3.42,5.57-6.29,10.26-9.49,15.46Z"/>
  <path class="cls-1" d="M385.74,308.44c-30.46,6.01-61.26,7.52-93.51,8.31-.61-14.8-1.95-29.23-1.63-43.61.47-21.8,4.85-42.94,14.16-62.88,23.7-50.78,71.21-80.12,127.1-77.19,45.85,2.4,86.29,18.62,119.05,51.49,18.04,18.1,28.39,40,28.75,66.03.02,1.13,0,2.25,0,3.23-6.25-10.63-12.47-21.21-18.68-31.79-.68.22-1.35.43-2.03.65,0,4.05.15,8.11-.02,12.15-2.02,47.39-24.07,82.8-64.32,107.27-22.75,13.83-47.65,22.77-72.51,31.78-32.05,11.61-64.24,22.88-94.39,39.07-29.57,15.88-56.7,34.85-77.32,61.89-3.1,4.07-5.75,8.48-9.46,14,1.71-14.31,5.21-26.55,11.08-38.13,10.37-20.47,27.24-34.59,45.94-46.87,24.46-16.06,51.39-27.16,78.06-38.84,27.1-11.87,54.21-23.76,80.8-36.69,19.09-9.28,36.04-21.91,49.97-38.32,23.08-27.21,26.88-71.21,6.4-97.35-10.22-13.04-23.26-22.21-38.65-28.14-.55-.21-1.21-.17-1.67-.23,7.16,4.47,14.87,8.28,21.38,13.56,20.42,16.57,25.83,39.02,21.98,63.8-3.57,22.91-17.8,39.8-34.92,54.26-20.66,17.45-45.32,27.62-70.27,37.03-24.88,9.39-50.01,18.14-74.72,27.92-23.89,9.46-46.44,21.49-66.57,37.77-25.26,20.42-40.99,46.83-49.86,77.7-.36,1.25-.7,2.5-1.32,3.72-1.8-16.75-.62-33.35,2.71-49.77,4.03-19.89,11.58-38.05,25.98-53.01,15.75-16.36,34.31-28.73,55.1-37.07,26.37-10.57,53.42-19.44,80.17-29.05,1.18-.42,2.32-.95,3.48-1.42-.08-.41-.15-.83-.23-1.24Z"/>
  <path class="cls-1" d="M661.84,514.86c-18.12.63-32.63,8.92-46.56,18.55-19.41,13.43-35.93,29.95-50.64,48.35l-1.14-.69c4-7.09,7.59-14.46,12.09-21.22,11.73-17.63,25.83-32.99,44.74-43.21,11.14-6.02,22.83-9.15,35.4-4.7,2.11.75,4.07,1.93,6.1,2.91Z"/>
  <path class="cls-1" d="M551.97,611.25c-3.38-9.69-9.62-17.17-17.32-23.4-19.29-15.62-23.47-26.51-12.43-53.88,1.04-2.58,2.34-5.06,3.52-7.56,0,7.58-.22,15.08.05,22.56.43,11.87,4.65,22.33,12.42,31.39,6.9,8.04,12.83,16.61,13.75,27.65.09,1.08.01,2.17.01,3.25Z"/>
  <path class="cls-1" d="M548.42,355.26c-12.83,4.85-24.01.44-30.38-11.76,3.44,1.42,6.64,3.25,10.08,4.01,3.45.76,7.33,1.21,10.67.37,3.6-.9,5.52-.7,6.76,2.97.5,1.49,1.74,2.72,2.87,4.4Z"/>
  <path class="cls-1" d="M574.9,442.29c-5.62,4.95-12.1,8.05-20.09,6.02-1.28-.33-2.23-1.92-3.33-2.92,1.3-.45,2.57-1.18,3.9-1.32,6.52-.68,13.07-1.21,19.52-1.78Z"/>
  <path class="cls-1" d="M608.46,435.12c6.81-1.96,13.51-3.93,20.25-5.76.81-.22,1.82.33,2.74.52-.25,1.01-.19,2.34-.82,2.98-3.98,3.99-9.07,4.52-14.3,3.96-2.72-.29-5.39-1.14-7.87-1.69Z"/>
  <path class="cls-1" d="M605.39,467.47c-7.94,1.51-15.88,3.03-24.55,4.68,7.54-7.04,15.87-6.72,24.55-4.68Z"/>
  <path class="cls-1" d="M585.09,473.98c5.39-1.03,11.91-2.29,17.68-3.4-3.44,4.41-11.75,5.95-17.68,3.4Z"/>
  <path class="cls-1" d="M525.97,427.58c3.19-5.2,6.07-9.89,9.49-15.46.8,6.86,1.47,12.63,2.23,19.13-3.96-1.24-7.61-2.38-11.72-3.67Z"/>
</svg>